<svg width="1024" height="1024" viewBox="0 0 1024 1024" fill="none" xmlns="http://www.w3.org/2000/svg">
<path d="M1024 512C1024 229.23 794.77 0 512 0C229.23 0 0 229.23 0 512C0 794.77 229.23 1024 512 1024C794.77 1024 1024 794.77 1024 512Z" fill="#3AB472"/>
<path d="M186.182 379.841C186.182 346.436 204.082 315.59 233.086 299.015L465.813 166.028C494.434 149.675 529.566 149.675 558.187 166.028L790.914 299.015C819.919 315.59 837.818 346.436 837.818 379.841V644.159C837.818 677.565 819.919 708.41 790.914 724.985L558.187 857.972C529.566 874.326 494.434 874.326 465.813 857.972L233.086 724.985C204.082 708.41 186.182 677.565 186.182 644.159V379.841Z" fill="white"/>
<path d="M477.167 389.276L477.167 389.277L583.677 666.201C583.677 666.201 583.677 666.201 583.677 666.202C587.084 675.064 595.6 680.909 605.091 680.909C614.911 680.909 621.674 671.06 618.15 661.895L618.15 661.894L508.642 377.171L508.641 377.168C506.135 370.66 499.882 366.364 492.905 366.364C481.071 366.364 472.922 378.233 477.167 389.276Z" fill="#3BB573" stroke="#3BB573" stroke-width="12"/>
<path d="M314.257 389.276L314.258 389.277L420.889 666.518C424.224 675.189 432.555 680.909 441.842 680.909C451.824 680.909 458.702 670.895 455.12 661.578L455.12 661.577L345.733 377.171L345.732 377.168C343.226 370.66 336.973 366.364 329.996 366.364C318.162 366.364 310.013 378.233 314.257 389.276Z" fill="#3BB573" stroke="#3BB573" stroke-width="12"/>
<path d="M678.395 378.449L678.395 378.449L591.141 662.023L591.14 662.024C588.256 671.407 595.269 680.909 605.091 680.909C614.642 680.909 623.075 674.681 625.883 665.551L711.124 388.521C714.513 377.51 706.279 366.364 694.761 366.364C687.245 366.364 680.606 371.264 678.395 378.449Z" fill="#3BB573" stroke="#3BB573" stroke-width="12"/>
<path d="M517.692 417.012L511.867 399.538L506.283 417.09L428.233 662.384L428.232 662.386C425.317 671.554 432.159 680.909 441.779 680.909C451.564 680.909 460.217 674.564 463.165 665.237L463.166 665.235L529.358 455.625L529.944 453.768L529.329 451.921L517.692 417.012Z" fill="#3BB573" stroke="#3BB573" stroke-width="12"/>
<path d="M495.918 366.364C482.807 366.364 474.282 380.163 480.144 391.887C483.132 397.862 489.238 401.636 495.918 401.636H690.99C697.671 401.636 703.777 397.862 706.765 391.887C712.627 380.163 704.102 366.364 690.99 366.364H495.918Z" fill="#3BB573" stroke="#3BB573" stroke-width="12"/>
</svg>
